<svg width="24" height="25" viewBox="0 0 24 25" fill="none" xmlns="http://www.w3.org/2000/svg">
<path fill-rule="evenodd" clip-rule="evenodd" d="M18.5165 16.45C17.5305 16.89 16.4382 17.1347 15.2899 17.1347C10.9132 17.1347 7.36522 13.5867 7.36522 9.21001C7.36522 8.06178 7.60983 6.96959 8.04978 5.98367C6.08228 7.3416 4.7942 9.61156 4.7942 12.1811C4.7942 16.3369 8.16312 19.7058 12.3189 19.7058C14.8885 19.7058 17.1586 18.4176 18.5165 16.45ZM19.2352 15.1504C18.1054 15.9023 16.7488 16.3405 15.2899 16.3405C11.3518 16.3405 8.15942 13.1481 8.15942 9.21001C8.15942 7.75118 8.59751 6.39468 9.34931 5.26488C9.3494 5.26474 9.3495 5.2646 9.34959 5.26446C9.35276 5.25969 9.35594 5.25492 9.35913 5.25016C9.38887 5.2057 9.41911 5.16158 9.44982 5.11783C9.66132 4.81656 9.38909 4.38407 9.05064 4.52881C6.08093 5.79879 4 8.74694 4 12.1811C4 16.7755 7.72449 20.5 12.3189 20.5C15.7532 20.5 18.7014 18.4189 19.9713 15.4491C20.116 15.1106 19.6835 14.8384 19.3823 15.0499C19.3385 15.0806 19.2944 15.1109 19.2499 15.1406C19.2452 15.1438 19.2404 15.147 19.2356 15.1502C19.2355 15.1503 19.2354 15.1503 19.2352 15.1504Z" fill="#29313A"/>
</svg>
