<svg width="24" height="24" viewBox="0 0 24 24" fill="none" xmlns="http://www.w3.org/2000/svg">
<path fill-rule="evenodd" clip-rule="evenodd" d="M12.0306 16.9509C14.8171 16.9509 17.076 14.692 17.076 11.9055C17.076 9.11892 14.8171 6.85998 12.0306 6.85998C9.24404 6.85998 6.98511 9.11892 6.98511 11.9055C6.98511 14.692 9.24404 16.9509 12.0306 16.9509ZM12.0306 17.6818C15.2208 17.6818 17.8069 15.0956 17.8069 11.9055C17.8069 8.71526 15.2208 6.12909 12.0306 6.12909C8.84038 6.12909 6.25421 8.71526 6.25421 11.9055C6.25421 15.0956 8.84038 17.6818 12.0306 17.6818Z" fill="white"/>
<path fill-rule="evenodd" clip-rule="evenodd" d="M12 2C12.2019 2 12.3655 2.16362 12.3655 2.36545V4.9064C12.3655 5.10823 12.2019 5.27184 12 5.27184C11.7982 5.27184 11.6346 5.10823 11.6346 4.9064V2.36545C11.6346 2.16362 11.7982 2 12 2Z" fill="white"/>
<path fill-rule="evenodd" clip-rule="evenodd" d="M12 18.7282C12.2019 18.7282 12.3655 18.8918 12.3655 19.0936V21.6346C12.3655 21.8364 12.2019 22 12 22C11.7982 22 11.6346 21.8364 11.6346 21.6346V19.0936C11.6346 18.8918 11.7982 18.7282 12 18.7282Z" fill="white"/>
<path fill-rule="evenodd" clip-rule="evenodd" d="M19.0709 4.92908C19.2136 5.0718 19.2136 5.30318 19.0709 5.4459L17.2741 7.24262C17.1314 7.38534 16.9 7.38534 16.7573 7.24262C16.6146 7.09991 16.6146 6.86852 16.7573 6.7258L18.554 4.92908C18.6968 4.78636 18.9281 4.78636 19.0709 4.92908Z" fill="white"/>
<path fill-rule="evenodd" clip-rule="evenodd" d="M7.24278 16.7571C7.3855 16.8998 7.3855 17.1312 7.24278 17.274L5.44606 19.0707C5.30335 19.2134 5.07196 19.2134 4.92924 19.0707C4.78653 18.928 4.78653 18.6966 4.92924 18.5539L6.72597 16.7571C6.86868 16.6144 7.10007 16.6144 7.24278 16.7571Z" fill="white"/>
<path fill-rule="evenodd" clip-rule="evenodd" d="M21.9999 11.9999C21.9999 12.2017 21.8363 12.3654 21.6345 12.3654H19.0935C18.8917 12.3654 18.7281 12.2017 18.7281 11.9999C18.7281 11.7981 18.8917 11.6345 19.0935 11.6345H21.6345C21.8363 11.6345 21.9999 11.7981 21.9999 11.9999Z" fill="white"/>
<path fill-rule="evenodd" clip-rule="evenodd" d="M5.27184 11.9999C5.27184 12.2017 5.10823 12.3653 4.9064 12.3653H2.36545C2.16362 12.3653 2 12.2017 2 11.9999C2 11.7981 2.16362 11.6344 2.36545 11.6344H4.9064C5.10823 11.6344 5.27184 11.7981 5.27184 11.9999Z" fill="white"/>
<path fill-rule="evenodd" clip-rule="evenodd" d="M19.0709 19.0708C18.9281 19.2135 18.6968 19.2135 18.554 19.0708L16.7573 17.274C16.6146 17.1313 16.6146 16.8999 16.7573 16.7572C16.9 16.6145 17.1314 16.6145 17.2741 16.7572L19.0709 18.5539C19.2136 18.6967 19.2136 18.928 19.0709 19.0708Z" fill="white"/>
<path fill-rule="evenodd" clip-rule="evenodd" d="M7.24278 7.24272C7.10007 7.38543 6.86868 7.38543 6.72596 7.24272L4.92924 5.44599C4.78653 5.30328 4.78653 5.07189 4.92924 4.92917C5.07196 4.78646 5.30335 4.78646 5.44606 4.92917L7.24278 6.7259C7.3855 6.86861 7.3855 7.1 7.24278 7.24272Z" fill="white"/>
</svg>
